<svg data-v-423bf9ae="" xmlns="http://www.w3.org/2000/svg" viewBox="0 0 416.22224145269337 163" class="iconAbove"><!----><!----><!----><g data-v-423bf9ae="" id="4f76585e-7675-400b-a2bf-05b61686cb68" fill="#000000" transform="matrix(5.55555594801415,0,0,5.55555594801415,0.8333287208407114,103.83333303788562)"><path d="M2.04 0L-0.15 0L-0.15 10.50L2.04 10.50L2.04 5.98L4.38 5.98L4.38 10.50L6.56 10.50L6.56 0L4.38 0L4.38 4.52L2.04 4.52L2.04 0ZM10.47 10.50L12.60 10.50L12.60 1.46L15.20 1.46L15.20 0L7.88 0L7.88 1.46L10.47 1.46L10.47 10.50ZM18.38 10.50L20.50 10.50L20.50 1.46L23.10 1.46L23.10 0L15.78 0L15.78 1.46L18.38 1.46L18.38 10.50ZM23.54 10.50L23.54 0L28.06 0L28.06 0Q30.83 0 30.83 2.04L30.83 2.04L30.83 4.38L30.83 4.38Q30.83 6.56 28.06 6.56L28.06 6.56L25.73 6.56L25.73 10.50L23.54 10.50ZM25.73 5.10L27.48 5.10L27.48 5.10Q28.64 5.10 28.64 4.08L28.64 4.08L28.64 2.48L28.64 2.48Q28.64 1.46 27.48 1.46L27.48 1.46L25.73 1.46L25.73 5.10ZM40.59 8.46L40.59 2.04L40.59 2.04Q40.59 1.31 39.13 1.31L39.13 1.31L39.13 1.31Q37.67 1.31 37.67 2.04L37.67 2.04L37.67 8.46L37.67 8.46Q37.67 9.19 39.13 9.19L39.13 9.19L39.13 9.19Q40.59 9.19 40.59 8.46L40.59 8.46ZM42.78 1.75L42.78 8.75L42.78 8.75Q42.78 10.65 39.13 10.65L39.13 10.65L39.13 10.65Q35.48 10.65 35.48 8.75L35.48 8.75L35.48 1.75L35.48 1.75Q35.48-0.15 39.13-0.15L39.13-0.15L39.13-0.15Q42.78-0.15 42.78 1.75L42.78 1.75ZM46.68 10.50L48.81 10.50L48.81 1.46L51.41 1.46L51.41 0L44.09 0L44.09 1.46L46.68 1.46L46.68 10.50ZM54.59 10.50L56.72 10.50L56.72 1.46L59.31 1.46L59.31 0L51.99 0L51.99 1.46L54.59 1.46L54.59 10.50ZM65.73 1.46L61.94 1.46L61.94 4.38L65.00 4.38L65.00 5.83L61.94 5.83L61.94 9.04L65.73 9.04L65.73 10.50L59.75 10.50L59.75 0L65.73 0L65.73 1.46ZM66.90 0L66.90 10.50L69.08 10.50L69.08 5.98L71.27 5.98L71.27 5.98Q72.00 5.98 72.00 6.71L72.00 6.71L72.00 9.92L72.00 9.92Q72.00 10.50 72.58 10.50L72.58 10.50L74.77 10.50L74.77 10.50Q74.19 10.50 74.19 9.92L74.19 9.92L74.19 7L74.19 7Q74.19 5.25 72.58 5.25L72.58 5.25L72.58 5.25Q74.19 5.25 74.19 3.50L74.19 3.50L74.19 1.75L74.19 1.75Q74.19 0 71.71 0L71.71 0L66.90 0ZM71.27 4.52L69.08 4.52L69.08 1.46L71.27 1.46L71.27 1.46Q72.00 1.46 72.00 2.19L72.00 2.19L72.00 3.79L72.00 3.79Q72.00 4.52 71.27 4.52L71.27 4.52Z"></path></g><defs data-v-423bf9ae=""><linearGradient data-v-423bf9ae="" gradientTransform="rotate(25)" id="8963246b-6a70-4e31-a9b2-6c68c6b35076" x1="0%" y1="0%" x2="100%" y2="0%"><stop data-v-423bf9ae="" offset="0%" style="stop-color: rgb(0, 10, 104); stop-opacity: 1;"></stop><stop data-v-423bf9ae="" offset="100%" style="stop-color: rgb(0, 196, 238); stop-opacity: 1;"></stop></linearGradient></defs><g data-v-423bf9ae="" id="af228f7c-66c0-4cd1-8745-6340173b30ac" transform="matrix(1.2421371892914357,0,0,1.2421371892914357,146.87345816562464,-16.31728013986872)" stroke="none" fill="url(#8963246b-6a70-4e31-a9b2-6c68c6b35076)"><path d="M18.1 36.9c-.2 4 3.7 6.6 8.3 8.2.7.3 1.5.6 2.2.9 2 1 5.3 2.2 9.7 2.4 1.1-.6 2.8-1.6 5.5-3.2 3.3-1.9 5.6-2.1 7.4-2 0 0 2.6-4 9.5-5.2.1-.4.1-.8.1-1.2-.4-12-.4-14.7-.4-14.7s-2.4-1.3-8.3-5c-5-3.2-10.7-3.4-12.2-3.4h-.4-.4c-1.5 0-7.1.2-12.2 3.4-5.9 3.7-8.9 5-8.9 5s.7 3.4.1 14.8zm30.6-12.1c.8 0 1.4 1 1.4 2.2-.1 1.2-.8 2.1-1.6 2.1s-1.4-1-1.4-2.2c0-1.2.7-2.1 1.6-2.1zM40 41.6c-.5.2-.9.2-1.4 0-.6-.2-1.4-.6-1.6-1.3l2.3-2.3 2.3 2.3c-.2.7-1 1.1-1.6 1.3zm-4.3-9.7s1-3.1 3.6-3.1 3.6 3.1 3.6 3.1c.9 2.2-.6 3-.8 2.3-.2-.7-.8-.6-1.2-.1-.3.3-.9 1.3-1.3 1.9-.1.2-.4.2-.5 0-.4-.6-1-1.5-1.3-1.9-.4-.5-1.1-.6-1.2.1-.3.7-1.8-.1-.9-2.3zm-6-7.1c.8-.1 1.6.8 1.7 1.9.2 1.2-.4 2.2-1.2 2.3-.8.1-1.6-.8-1.7-1.9-.1-1.1.4-2.2 1.2-2.3zM75.5 80.4c.9-.4 1.4-1.4 1.1-2.4-.7-2-2.1-5.2-4.8-6.5-4-1.9-5-5.8-9.3-7.3 0 0-.4 2.3-3.1 2.3 0 0 .4 3-3.5 3.6 0 0 1.2 1.4-1.7 3.2 0 0 .3 3.5-1.2 3.7 0 0 8.4 4.1 10.7 4.1 2.1.1 7 1.2 11.8-.7zM80 68.9s-.2 2.1 2.7 2.3c2.9.2 10.3.6 9.9-2.3-.4-2.9 2.9-6.5 0-11.2C89.7 53 87 50 86.9 46.2c0 0-1.7 1.4-3.8 0 0 0-1 4.2-3.1 3.6 0 0-.6 6.4 2.5 10.5 0-.1-.6 5.3-2.5 8.6z"></path><path d="M98 68.9s.2 1.9-2.3 4.4c-2.5 2.5-12.6 0-12.8 5.8-.2 5.8-15.8 4.7-15.8 4.7 9 3.7 17.7 2.5 19.8.1 2.1-2.4-1.3-5.9 6.9-7.5 8.3-1.6 4.2-7.5 4.2-7.5zM16.3 30s.4-4.9 0-6.8c0 0-2.5-1.7-4.3-1.1-1.8.6-4.5 5.1 4.3 7.9zM66.2 23.1c-1.8-.6-2.9-.6-4.7-.1.8 3.6.9 7.3.9 7.3 7.2-2.6 5.6-6.6 3.8-7.2zM14.3 63.8c-7-1.6-11.8-6.9-8.3-10.7 1.1-1.2 2.5-2.1 4-2.8 0-.3.1-.5.1-.8-3.3.8-6.9 2.2-8.4 4.6C-.8 58 3 64.4 14.8 68.4c2.4.8 7.8 4.6 11 5.5 15.6 4.5 21.7-4 21.7-4-25.5 2.7-26.1-4.5-33.2-6.1zM66 40.2c-1.3-3.2-2.7-5.6-4-7.3 0 1.2.1 2.5.1 4 0 .4 0 .9-.1 1.3 1.8.2 3.1 1.1 4 2z"></path><path d="M56.5 57.3c.3-.9.4-1.7.6-2.4.3-.8.7-1.8 1.7-2.9 1-.6 1.2-1.7.8-2.8-.5-1.6-2.1-3-3.7-3.9-1.7-.9-3.7-1.5-5.8-1.2-5.6.7-5.6 3.2-10.8 5.9h-.1c-.8.4-2.7 1.2-4.4 2-1.1.5-2.1 1-3.2 1.5-.2.1-.4.2-.7.3-2.8 1.3-5.6 2.7-7.8 3.8s4.8-3.9 7.8-5.3c.2-.1.5-.2.7-.3 0 0-1.7-.5-2.3-2.3-.4-.7-1.4-1.7-2.3-2.7-.4-.2-.8-.3-1.2-.5-6.4-2.3-9.5-5.6-9.3-9.7 0-.5 0-1 .1-1.4-3.9 8.2-5 16-5.2 19.1-.1.9.4 1.7 1.1 2.2 1.9 1.2 4 2.3 6.2 3.2 1.7 4.3 24.6 9 32.6 3.4 1.2-.8 2.1-1.6 2.8-2.3 1.5-1.5 2.1-2.6 2.4-3.7z"></path><path d="M54.6 42.1l-.3.3c-.1.1-.2.2-.2.3-.1.1-.1.2-.2.2-.1.2-.3.4-.4.6 2.4.4 5.4 1.5 6.6 4.1 1.8 3.7-.3 4.5-1.3 8.9-.1.3-.2.6-.2.9 0 .1-.1.2-.1.3-.1.2-.1.4-.2.6 0 .1-.1.2-.1.3-.1.2-.1.3-.2.5-.1.1-.1.2-.2.4-.1.1-.1.3-.2.4-.1.1-.1.2-.2.3-.1.1-.1.3-.2.4-.2.1-.2.3-.3.4-.1.1-.1.2-.2.3-.1.1-.1.2-.2.3-.1.1-.1.2-.2.3-.1.1-.2.2-.2.4 0 0 3.6-.3 11-1.7s7.9-2.9 7.9-2.9-1.4-4.4-4.5-7.1c-2.3-2-2.4-5.5-4.2-8.3-2.1-2.5-4.5-3-5.5-3.1-2.1.1-4.3 1.4-5.8 2.5l-.4.4z"></path></g><!----></svg>