<svg data-v-423bf9ae="" xmlns="http://www.w3.org/2000/svg" viewBox="0 0 416.22224145269337 60" class="font"><!----><!----><!----><g data-v-423bf9ae="" id="919d53e9-6bb8-4a33-89fa-3a01c78ade26" fill="black" transform="matrix(5.55555594801415,0,0,5.55555594801415,0.8333287208407114,0.8333330378856232)"><path d="M2.04 0L-0.15 0L-0.15 10.50L2.04 10.50L2.04 5.98L4.38 5.98L4.38 10.50L6.56 10.50L6.56 0L4.38 0L4.38 4.52L2.04 4.52L2.04 0ZM10.47 10.50L12.60 10.50L12.60 1.46L15.20 1.46L15.20 0L7.88 0L7.88 1.46L10.47 1.46L10.47 10.50ZM18.38 10.50L20.50 10.50L20.50 1.46L23.10 1.46L23.10 0L15.78 0L15.78 1.46L18.38 1.46L18.38 10.50ZM23.54 10.50L23.54 0L28.06 0L28.06 0Q30.83 0 30.83 2.04L30.83 2.04L30.83 4.38L30.83 4.38Q30.83 6.56 28.06 6.56L28.06 6.56L25.73 6.56L25.73 10.50L23.54 10.50ZM25.73 5.10L27.48 5.10L27.48 5.10Q28.64 5.10 28.64 4.08L28.64 4.08L28.64 2.48L28.64 2.48Q28.64 1.46 27.48 1.46L27.48 1.46L25.73 1.46L25.73 5.10ZM40.59 8.46L40.59 2.04L40.59 2.04Q40.59 1.31 39.13 1.31L39.13 1.31L39.13 1.31Q37.67 1.31 37.67 2.04L37.67 2.04L37.67 8.46L37.67 8.46Q37.67 9.19 39.13 9.19L39.13 9.19L39.13 9.19Q40.59 9.19 40.59 8.46L40.59 8.46ZM42.78 1.75L42.78 8.75L42.78 8.75Q42.78 10.65 39.13 10.65L39.13 10.65L39.13 10.65Q35.48 10.65 35.48 8.75L35.48 8.75L35.48 1.75L35.48 1.75Q35.48-0.15 39.13-0.15L39.13-0.15L39.13-0.15Q42.78-0.15 42.78 1.75L42.78 1.75ZM46.68 10.50L48.81 10.50L48.81 1.46L51.41 1.46L51.41 0L44.09 0L44.09 1.46L46.68 1.46L46.68 10.50ZM54.59 10.50L56.72 10.50L56.72 1.46L59.31 1.46L59.31 0L51.99 0L51.99 1.46L54.59 1.46L54.59 10.50ZM65.73 1.46L61.94 1.46L61.94 4.38L65.00 4.38L65.00 5.83L61.94 5.83L61.94 9.04L65.73 9.04L65.73 10.50L59.75 10.50L59.75 0L65.73 0L65.73 1.46ZM66.90 0L66.90 10.50L69.08 10.50L69.08 5.98L71.27 5.98L71.27 5.98Q72.00 5.98 72.00 6.71L72.00 6.71L72.00 9.92L72.00 9.92Q72.00 10.50 72.58 10.50L72.58 10.50L74.77 10.50L74.77 10.50Q74.19 10.50 74.19 9.92L74.19 9.92L74.19 7L74.19 7Q74.19 5.25 72.58 5.25L72.58 5.25L72.58 5.25Q74.19 5.25 74.19 3.50L74.19 3.50L74.19 1.75L74.19 1.75Q74.19 0 71.71 0L71.71 0L66.90 0ZM71.27 4.52L69.08 4.52L69.08 1.46L71.27 1.46L71.27 1.46Q72.00 1.46 72.00 2.19L72.00 2.19L72.00 3.79L72.00 3.79Q72.00 4.52 71.27 4.52L71.27 4.52Z"></path></g><!----><!----></svg>